<svg xmlns="http://www.w3.org/2000/svg" width="44.943" height="48.002" viewBox="0 0 44.943 48.002">
  <g>
    <path d="M44.8,32.327a.723.723,0,0,0-.586-.3h-3.85v-.434a6.084,6.084,0,0,0-3.632-5.461c-.517-.244-1.056-.471-1.613-.689l1.157-1.523a.73.73,0,0,0-.074-.963c-3.152-3.055-2.675-4.6-1.952-6.945a14.023,14.023,0,0,0,.8-4.39,10.965,10.965,0,0,0-3.147-8.259C28.216-.184,22.676-.007,22.5.005,22.27,0,16.73-.183,13.037,3.364A10.961,10.961,0,0,0,9.89,11.623a14.023,14.023,0,0,0,.8,4.39c.723,2.344,1.2,3.891-1.953,6.945a.73.73,0,0,0-.077.959L9.809,25.45c-.554.217-1.09.443-1.6.686a6.079,6.079,0,0,0-3.626,5.455v.438H.727a.729.729,0,0,0-.693.947L4.613,47.492a.727.727,0,0,0,.693.51H39.638a.727.727,0,0,0,.693-.51L44.91,32.976A.727.727,0,0,0,44.8,32.327ZM12.082,15.585a12.661,12.661,0,0,1-.738-3.962,9.567,9.567,0,0,1,2.694-7.2C17.276,1.3,22.393,1.454,22.5,1.458c.044,0,5.146-.17,8.4,2.955a9.571,9.571,0,0,1,2.7,7.21,12.656,12.656,0,0,1-.738,3.962c-.752,2.438-1.405,4.557,1.875,7.961l-1.046,1.377c-.347-.115-.7-.229-1.069-.336-.606-.18-1.219-.35-1.841-.5a4.586,4.586,0,0,1-3.388-3.223,10.991,10.991,0,0,0,2.6-7.3A10.906,10.906,0,0,0,29.6,10.6a.73.73,0,0,0-.537-.512,6.072,6.072,0,0,1-4.216-3.361.727.727,0,0,0-1.238-.2c-2.812,3.4-7.524,3.539-7.572,3.541a.73.73,0,0,0-.686.527,10.892,10.892,0,0,0-.391,2.967,11,11,0,0,0,2.6,7.3,4.441,4.441,0,0,1-3.4,3.223c-.628.148-1.233.316-1.844.5q-.552.163-1.074.34L10.206,23.55C13.488,20.142,12.834,18.023,12.082,15.585Zm6.656,6.371a6.044,6.044,0,0,0,7.477-.008,5.884,5.884,0,0,0,2.606,2.9c-.346,2.064-3.164,3.791-6.351,3.791s-6.008-1.719-6.351-3.771A5.779,5.779,0,0,0,18.738,21.956Zm-2.326-8.389a9.718,9.718,0,0,1,.213-2.076,12.541,12.541,0,0,0,7.39-3.258A7.575,7.575,0,0,0,28.3,11.4a9.771,9.771,0,0,1,.233,2.171c0,4.536-2.719,8.225-6.061,8.225S16.412,18.1,16.412,13.567ZM6.033,31.591A4.641,4.641,0,0,1,8.827,27.45a27.1,27.1,0,0,1,3.9-1.465c.584-.174,1.163-.336,1.767-.479.091-.021.177-.055.267-.08.647,2.646,3.856,4.664,7.714,4.664,3.78,0,7.032-2.055,7.706-4.672.053.016.1.037.156.053a1.009,1.009,0,0,0,.111.031c.6.143,1.183.3,1.763.477a27.137,27.137,0,0,1,3.905,1.469,4.643,4.643,0,0,1,2.8,4.146v.434H6.033ZM39.1,46.546H5.839L1.72,33.483h41.5Z" fill="#1a171b"/>
    <path d="M17.056,40.632c0,1.8,2.744,2.748,5.454,2.748s5.454-.943,5.454-2.748C27.964,37.025,17.056,37.025,17.056,40.632Zm5.454,1.293c-2.639,0-4-.906-4-1.293s1.361-1.293,4-1.293,4,.906,4,1.293S25.149,41.925,22.51,41.925Z" fill="#1a171b"/>
  </g>
</svg>
